<?xml version="1.0" encoding="UTF-8"?>
<svg width="128px" height="128px" viewBox="0 0 128 128" version="1.1" xmlns="http://www.w3.org/2000/svg" xmlns:xlink="http://www.w3.org/1999/xlink">
    <!-- Generator: Sketch 64 (93537) - https://sketch.com -->
    <title>图标/图标128px/文件-w</title>
    <desc>Created with Sketch.</desc>
    <g id="图标/图标128px/文件-w" stroke="none" stroke-width="1" fill="none" fill-rule="evenodd">
        <g id="图标-文件128px-w" fill="#175ABD">
            <path d="M0,0 L128,0 L128,128 L0,128 L0,0 Z M50.56,80.344 C50.5,78.232 48.32,69.272 47.808,67.1 L41.408,42.14 L34.624,42.14 L46.08,87 L54.72,87 L61.376,59.992 C61.824,58.264 63.616,50.648 63.876,48.6 L64.132,48.6 C64.388,50.52 66.244,58.2 66.884,60.888 L73.28,87 L81.856,87 L93.44,42.136 L86.976,42.136 L80.576,67.8 C80,70.3 78.016,78.552 77.888,80.28 L77.632,80.28 C77.44,78.488 75.584,71.128 75.072,68.952 L68.416,42.136 L59.84,42.136 L53.44,68.76 C52.992,70.616 51.072,78.104 50.816,80.344 L50.56,80.344 Z" id="形状结合"></path>
        </g>
    </g>
</svg>