<?xml version="1.0" encoding="UTF-8"?>
<svg width="128px" height="128px" viewBox="0 0 128 128" version="1.1" xmlns="http://www.w3.org/2000/svg" xmlns:xlink="http://www.w3.org/1999/xlink">
    <!-- Generator: Sketch 64 (93537) - https://sketch.com -->
    <title>图标/图标128px/文件-img</title>
    <desc>Created with Sketch.</desc>
    <g id="图标/图标128px/文件-img" stroke="none" stroke-width="1" fill="none" fill-rule="evenodd">
        <g id="图标-文件128px-img" fill="#0385FF">
            <path d="M0,0 L128,0 L128,128 L0,128 L0,0 Z M41.5,48.5 C47.9893458,48.5 53.25,43.2393458 53.25,36.75 C53.25,30.2606542 47.9893458,25 41.5,25 C35.0106542,25 29.75,30.2606542 29.75,36.75 C29.75,43.2393458 35.0106542,48.5 41.5,48.5 Z M38.02,67.74 C34.514044,66.7706846 30.8179638,68.4568526 29.252,71.74 L17.1,97.212 C16.9151233,97.5997223 16.9422734,98.0552122 17.1718989,98.4182276 C17.4015243,98.7812429 17.8014571,99.000929 18.231,99.0000029 L110.053,99.0000029 C110.450126,99.0000029 110.823626,98.8113047 111.059241,98.4916259 C111.294856,98.1719471 111.364549,97.7593299 111.247,97.38 L96.541,49.972 C95.6960356,47.248444 93.3796478,45.2396879 90.5639164,44.7887127 C87.748185,44.3377375 84.9203029,45.5225733 83.267,47.846 L69.076,67.788 C66.0282458,72.0703538 60.6271248,73.988621 55.561,72.588 L38.02,67.74 Z" id="形状结合"></path>
        </g>
    </g>
</svg>