<?xml version="1.0" encoding="UTF-8"?>
<svg width="128px" height="128px" viewBox="0 0 128 128" version="1.1" xmlns="http://www.w3.org/2000/svg" xmlns:xlink="http://www.w3.org/1999/xlink">
    <!-- Generator: Sketch 64 (93537) - https://sketch.com -->
    <title>图标/图标128px/文件-@</title>
    <desc>Created with Sketch.</desc>
    <g id="图标/图标128px/文件-@" stroke="none" stroke-width="1" fill="none" fill-rule="evenodd">
        <g id="图标-文件128px-@" fill="#0385FF">
            <path d="M0,0 L128,0 L128,128 L0,128 L0,0 Z M46,62.735 C39.233,69.862 37.541,82.335 44.308,89.463 C51.075,96.591 62.918,94.809 69.685,87.681 L84.949,71.6 C85.8626743,70.6195289 85.8626743,69.0994711 84.949,68.119 L84.87,68.035 C84.4440971,67.5740947 83.8450564,67.3120048 83.2175,67.3120048 C82.5899436,67.3120048 81.9909029,67.5740947 81.565,68.035 L66.3,84.117 C61.729,88.932 52.262,90.717 47.691,85.899 C43.12,81.081 44.812,71.113 49.383,66.299 L69.683,44.917 C72.288,42.173 78.142,39.571 81.525,43.135 C84.908,46.699 82.438,52.864 79.833,55.608 L62.917,73.426 C62.917,73.426 59.534,76.99 57.842,75.208 C56.15,73.426 59.534,69.862 59.534,69.862 L74.8,53.785 C75.7136743,52.8045289 75.7136743,51.2844711 74.8,50.304 L74.721,50.221 C74.2950971,49.7600947 73.6960564,49.4980048 73.0685,49.4980048 C72.4409436,49.4980048 71.8419029,49.7600947 71.416,50.221 L56.15,66.3 C52.882,69.742 51.075,75.209 54.458,78.773 C57.841,82.337 63.032,80.432 66.3,76.99 L83.219,59.171 C88.376,53.739 89.986,44.916 84.911,39.571 C79.836,34.226 72.211,35.127 66.978,40.64 L46,62.735 Z" id="形状结合"></path>
        </g>
    </g>
</svg>