<?xml version="1.0" encoding="UTF-8"?>
<svg width="128px" height="128px" viewBox="0 0 128 128" version="1.1" xmlns="http://www.w3.org/2000/svg" xmlns:xlink="http://www.w3.org/1999/xlink">
    <!-- Generator: Sketch 64 (93537) - https://sketch.com -->
    <title>图标/图标128px/文件-mpp</title>
    <desc>Created with Sketch.</desc>
    <g id="图标/图标128px/文件-mpp" stroke="none" stroke-width="1" fill="none" fill-rule="evenodd">
        <g id="图标-文件128px-mpp" fill="#049E45">
            <path d="M0,0 L128,0 L128,128 L0,128 L0,0 Z M23.79,53.44 L23.79,82 L28.47,82 L28.47,62.32 L28.63,62.32 L37.03,82 L41.07,82 L49.47,62.32 L49.63,62.32 L49.63,82 L54.31,82 L54.31,53.44 L48.83,53.44 L39.15,75.84 L38.99,75.84 L29.27,53.44 L23.79,53.44 Z M59.077,53.44 L59.077,82 L63.757,82 L63.757,71.04 L70.837,71.04 C77.797,71.04 81.277,68.08 81.277,62.2 C81.277,56.36 77.797,53.44 70.917,53.44 L59.077,53.44 Z M63.757,57.44 L70.557,57.44 C72.145534,57.3098827 73.7330025,57.7032378 75.077,58.56 C76.1337308,59.4598715 76.6859522,60.8180377 76.557,62.2 C76.6886892,63.597452 76.1552755,64.9754376 75.117,65.92 C73.7524945,66.7633229 72.1569358,67.1552145 70.557,67.04 L63.757,67.04 L63.757,57.44 Z M84.444,53.44 L84.444,82 L89.124,82 L89.124,71.04 L96.2,71.04 C103.16,71.04 106.64,68.08 106.64,62.2 C106.64,56.36 103.16,53.44 96.28,53.44 L84.444,53.44 Z M89.124,57.44 L95.924,57.44 C97.512534,57.3098827 99.1000025,57.7032378 100.444,58.56 C101.500731,59.4598715 102.052952,60.8180377 101.924,62.2 C102.055689,63.597452 101.522275,64.9754376 100.484,65.92 C99.1195211,66.7633864 97.5239416,67.1552831 95.924,67.04 L89.124,67.04 L89.124,57.44 Z" id="形状结合"></path>
        </g>
    </g>
</svg>