<svg id="图层_1" data-name="图层 1" xmlns="http://www.w3.org/2000/svg" viewBox="0 0 96 96"><defs><style>.cls-1{fill:#175abd;}</style></defs><title>文件-ofd</title><path class="cls-1" d="M88,0H8A8,8,0,0,0,0,8V88a8,8,0,0,0,8,8H88a8,8,0,0,0,8-8V8A8,8,0,0,0,88,0ZM28.26,62.3C21.52,62,18,58.35,17.73,51.46q.52-10.51,10.73-11Q38.27,41,39,51.36,38.67,62,28.26,62.3Zm50.17-3.18C76.63,61,74,62,70.54,62H62.71V40.58h7.83c3.48,0,6.09,1,7.89,2.88S81,47.87,81,51.29,80.14,57.29,78.43,59.12ZM58.29,43.58H47.19v5.94H57.66v3H47.19V62H43.68V40.58H58.29Z"/><path class="cls-1" d="M28.36,43.49q-6.6.51-7,8,.32,7.47,6.81,8,6.91-.3,7.12-8Q34.76,44.11,28.36,43.49Z"/><path class="cls-1" d="M69.88,43.58H66.22V59h3.66c2.67,0,4.62-.63,5.85-1.86s1.8-3.21,1.8-5.85-.6-4.68-1.8-5.88S72.55,43.58,69.88,43.58Z"/></svg>