<?xml version="1.0" encoding="UTF-8"?>
<svg width="128px" height="128px" viewBox="0 0 128 128" version="1.1" xmlns="http://www.w3.org/2000/svg" xmlns:xlink="http://www.w3.org/1999/xlink">
    <!-- Generator: Sketch 64 (93537) - https://sketch.com -->
    <title>图标/图标128px/文件-?</title>
    <desc>Created with Sketch.</desc>
    <g id="图标/图标128px/文件-?" stroke="none" stroke-width="1" fill="none" fill-rule="evenodd">
        <g id="图标-文件128px-?" fill="#9575CD">
            <path d="M0,0 L128,0 L128,128 L0,128 L0,0 Z M65.871,39.659 C61.135,39.659 57.423,41.003 54.671,43.691 C51.855,46.379 50.511,50.091 50.511,54.827 L57.811,54.827 C57.6673573,52.6197114 58.2275528,50.4237453 59.411,48.555 C60.627,46.763 62.611,45.931 65.427,45.931 C67.2944699,45.7181421 69.1582947,46.3592157 70.499708,47.675788 C71.8411213,48.9923603 72.5169178,50.843878 72.339,52.715 C72.3167739,54.3860293 71.7047414,55.9954483 70.611,57.259 L69.843,58.159 C65.683,61.871 63.187,64.559 62.355,66.287 C61.4336451,68.2454692 60.994737,70.396119 61.075,72.559 L61.075,73.459 L68.435,73.459 L68.435,72.559 C68.4184278,71.1155915 68.7475988,69.6891838 69.395,68.399 C70.0162585,67.1657486 70.8882017,66.0758195 71.955,65.199 C75.027,62.511 76.883,60.783 77.455,60.143 C79.0890574,57.8510623 79.9214006,55.0840836 79.823,52.271 C79.9966812,48.7773873 78.585968,45.3916755 75.983,43.055 C73.423,40.747 70.031,39.659 65.871,39.659 Z M64.719,76.587 C63.4140353,76.5514916 62.1482222,77.034802 61.199,77.931 C59.3214254,79.8524819 59.3214254,82.9215181 61.199,84.843 C62.1411121,85.7575968 63.4060245,86.2635617 64.719,86.251 C66.0239647,86.2865084 67.2897778,85.803198 68.239,84.907 C70.1764591,82.9955107 70.2050628,79.8777142 68.303,77.931 C67.3288709,77.0334807 66.0430826,76.5513101 64.719,76.587 L64.719,76.587 Z" id="形状结合"></path>
        </g>
    </g>
</svg>