<?xml version="1.0" encoding="UTF-8"?>
<svg width="128px" height="128px" viewBox="0 0 128 128" version="1.1" xmlns="http://www.w3.org/2000/svg" xmlns:xlink="http://www.w3.org/1999/xlink">
    <!-- Generator: Sketch 64 (93537) - https://sketch.com -->
    <title>图标/图标128px/文件-pdf</title>
    <desc>Created with Sketch.</desc>
    <g id="图标/图标128px/文件-pdf" stroke="none" stroke-width="1" fill="none" fill-rule="evenodd">
        <g id="图标-文件128px-pdf" fill="#EF5A5A">
            <path d="M0,0 L128,0 L128,128 L0,128 L0,0 Z M28.91,53.44 L28.91,82 L33.59,82 L33.59,71.04 L40.67,71.04 C47.63,71.04 51.11,68.08 51.11,62.2 C51.11,56.36 47.63,53.44 40.75,53.44 L28.91,53.44 Z M33.59,57.44 L40.39,57.44 C41.978534,57.3098827 43.5660025,57.7032378 44.91,58.56 C45.9667308,59.4598715 46.5189522,60.8180377 46.39,62.2 C46.5216892,63.597452 45.9882755,64.9754376 44.95,65.92 C43.5854945,66.7633229 41.9899358,67.1552145 40.39,67.04 L33.59,67.04 L33.59,57.44 Z M54.277,53.44 L54.277,82 L64.717,82 C69.357,82 72.837,80.72 75.237,78.16 C77.517,75.72 78.677,72.24 78.677,67.72 C78.677,63.16 77.517,59.68 75.237,57.28 C72.837,54.72 69.357,53.44 64.717,53.44 L54.277,53.44 Z M58.957,57.44 L63.837,57.44 C67.397,57.44 69.997,58.24 71.637,59.88 C73.237,61.48 74.037,64.12 74.037,67.72 C74.037,71.24 73.237,73.84 71.637,75.52 C70,77.16 67.4,78 63.837,78 L58.957,78 L58.957,57.44 Z M82.244,53.44 L82.244,82 L86.924,82 L86.924,69.36 L100.884,69.36 L100.884,65.36 L86.923,65.36 L86.923,57.44 L101.723,57.44 L101.723,53.44 L82.244,53.44 Z" id="形状结合"></path>
        </g>
    </g>
</svg>