<?xml version="1.0" encoding="UTF-8"?>
<svg width="128px" height="128px" viewBox="0 0 128 128" version="1.1" xmlns="http://www.w3.org/2000/svg" xmlns:xlink="http://www.w3.org/1999/xlink">
    <!-- Generator: Sketch 64 (93537) - https://sketch.com -->
    <title>图标/图标128px/文件-rar</title>
    <desc>Created with Sketch.</desc>
    <g id="图标/图标128px/文件-rar" stroke="none" stroke-width="1" fill="none" fill-rule="evenodd">
        <g id="图标-文件128px-rar" fill="#EF9C00">
            <path d="M0,0 L128,0 L128,128 L0,128 L0,0 Z M26.59,53.44 L26.59,82 L31.27,82 L31.27,70.36 L38.67,70.36 C39.9812947,70.2581812 41.285967,70.626893 42.35,71.4 C43.24703,72.2912441 43.7632577,73.4957754 43.79,74.76 L44.15,78.28 C44.2100096,79.6110633 44.6393697,80.8991436 45.39,82 L50.47,82 C49.4424212,80.8321705 48.8367203,79.3531335 48.75,77.8 L48.27,73.2 C47.95,70.4 46.55,68.76 44.07,68.2 L44.07,68.12 C45.5517209,67.7557138 46.8474624,66.858662 47.71,65.6 C48.5111682,64.4364721 48.9305441,63.0525316 48.91,61.64 C49.0437005,59.2549838 48.0516803,56.9452053 46.23,55.4 C44.2098787,53.9860144 41.7715717,53.2953957 39.31,53.44 L26.59,53.44 Z M31.27,57.44 L38.67,57.44 C40.1469454,57.3067573 41.6258839,57.6729706 42.87,58.48 C43.8211595,59.3250537 44.3116195,60.5734974 44.19,61.84 C44.2628383,63.0991916 43.7804462,64.3270988 42.87,65.2 C41.6399993,66.0473671 40.1605438,66.4559786 38.67,66.36 L31.27,66.36 L31.27,57.44 Z M61.757,53.44 L50.837,82 L55.837,82 L58.437,74.84 L70.4,74.84 L73,82 L78,82 L67.077,53.44 L61.757,53.44 Z M59.837,71 L64.357,58.48 L64.517,58.48 L69,71 L59.837,71 Z M79.963,53.44 L79.963,82 L84.643,82 L84.643,70.36 L92.043,70.36 C93.3542947,70.2581812 94.658967,70.626893 95.723,71.4 C96.62003,72.2912441 97.1362577,73.4957754 97.163,74.76 L97.523,78.28 C97.5829572,79.611073 98.012322,80.8991673 98.763,82 L103.843,82 C102.815421,80.8321705 102.20972,79.3531335 102.123,77.8 L101.643,73.2 C101.323,70.4 99.923,68.76 97.443,68.2 L97.443,68.12 C98.9247601,67.7558007 100.22053,66.8587293 101.083,65.6 C101.884168,64.4364721 102.303544,63.0525316 102.283,61.64 C102.415808,59.2545045 101.422667,56.9447038 99.6,55.4 C97.5798787,53.9860144 95.1415717,53.2953957 92.68,53.44 L79.963,53.44 Z M84.643,57.44 L92.043,57.44 C93.5199454,57.3067573 94.9988839,57.6729706 96.243,58.48 C97.1941595,59.3250537 97.6846195,60.5734974 97.563,61.84 C97.6358383,63.0991916 97.1534462,64.3270988 96.243,65.2 C95.0129993,66.0473671 93.5335438,66.4559786 92.043,66.36 L84.643,66.36 L84.643,57.44 Z" id="形状结合"></path>
        </g>
    </g>
</svg>