<?xml version="1.0" encoding="UTF-8"?>
<svg width="128px" height="128px" viewBox="0 0 128 128" version="1.1" xmlns="http://www.w3.org/2000/svg" xmlns:xlink="http://www.w3.org/1999/xlink">
    <!-- Generator: Sketch 64 (93537) - https://sketch.com -->
    <title>图标/图标128px/文件-vsd</title>
    <desc>Created with Sketch.</desc>
    <g id="图标/图标128px/文件-vsd" stroke="none" stroke-width="1" fill="none" fill-rule="evenodd">
        <g id="图标-文件128px-vsd" fill="#3955A4">
            <path d="M0,0 L128,0 L128,128 L0,128 L0,0 Z M24.85,53.44 L35.01,82 L40.65,82 L50.81,53.44 L45.73,53.44 L37.89,76.72 L37.77,76.72 L29.93,53.44 L24.85,53.44 Z M63.057,52.88 C60.3688264,52.7645395 57.7117352,53.4917434 55.457,54.96 C53.4032393,56.233321 52.1837333,58.5046508 52.257,60.92 C52.173829,63.305603 53.4429071,65.5342279 55.537,66.68 C57.6604637,67.6431878 59.8533042,68.4454465 62.097,69.08 C63.9831778,69.6049759 65.8392754,70.2325772 67.657,70.96 C69.417,71.84 70.337,73.04 70.337,74.56 C70.306591,75.7765267 69.5970803,76.8734294 68.5,77.4 C66.9609847,78.1598594 65.2546211,78.5176454 63.54,78.44 C61.7208821,78.565293 59.9068249,78.1327101 58.34,77.2 C56.9758775,76.0269127 56.1399964,74.3551504 56.02,72.56 L51.38,72.56 C51.58,76.2 52.9,78.84 55.3,80.52 C57.26,81.88 60.02,82.56 63.54,82.56 C67.18,82.56 70.02,81.8 72.02,80.36 C73.975412,78.9638876 75.1017043,76.6812685 75.02,74.28 C75.046196,71.6879906 73.6062015,69.3034836 71.3,68.12 C68.8949874,66.965865 66.3917118,66.0288099 63.82,65.32 C62.1571299,64.8390339 60.5270687,64.251143 58.94,63.56 C57.7539844,63.0685172 56.9697083,61.9234741 56.94,60.64 C56.8602582,59.3848286 57.5591525,58.2094156 58.7,57.68 C59.9920297,57.0983812 61.4054899,56.8376458 62.82,56.92 C64.4769754,56.7910372 66.131562,57.1976729 67.54,58.08 C68.70942,59.0383622 69.491173,60.3886629 69.74,61.88 L74.38,61.88 C74.1,58.76 72.94,56.44 70.94,54.96 C69.057,53.56 66.417,52.88 63.057,52.88 L63.057,52.88 Z M78.184,53.44 L78.184,82 L88.624,82 C93.264,82 96.744,80.72 99.144,78.16 C101.424,75.72 102.584,72.24 102.584,67.72 C102.584,63.16 101.424,59.68 99.144,57.28 C96.744,54.72 93.264,53.44 88.624,53.44 L78.184,53.44 Z M82.864,57.44 L87.744,57.44 C91.304,57.44 93.904,58.24 95.544,59.88 C97.144,61.48 97.944,64.12 97.944,67.72 C97.944,71.24 97.144,73.84 95.544,75.52 C93.9,77.16 91.3,78 87.743,78 L82.863,78 L82.864,57.44 Z" id="形状结合"></path>
        </g>
    </g>
</svg>