<svg id="图层_1" data-name="图层 1" xmlns="http://www.w3.org/2000/svg" viewBox="0 0 96 96"><defs><style>.cls-1{fill:#0385ff;fill-rule:evenodd;}</style></defs><title>文件-wps</title><path class="cls-1" d="M54.07,43.73H48.58v6.94h5.49c3,0,4.45-1.21,4.45-3.63Q58.31,43.83,54.07,43.73Z"/><path class="cls-1" d="M88,0H8A8,8,0,0,0,0,8V88a8,8,0,0,0,8,8H88a8,8,0,0,0,8-8V8A8,8,0,0,0,88,0ZM36.91,62.05H33.7q-4.25-14.49-4.45-15.21a6.17,6.17,0,0,1-.31-2.28h-.11a12.85,12.85,0,0,1-.31,2.28q-.3.72-4.76,15.21H20.55L14.34,40.62h3.73Q21.58,54.2,21.9,55.43a.76.76,0,0,0,.1.31,16.54,16.54,0,0,1,.21,2.07h.1a7.43,7.43,0,0,1,.42-2.38q.3-.82,4.45-14.81H30.7q3.82,14,4.14,14.81a7.69,7.69,0,0,1,.41,2.38h.11a16,16,0,0,1,.2-2.07.82.82,0,0,0,.11-.31q.3-1.24,4-14.81h3.73Zm17.47-8.28h-5.8v8.28H45V40.52h9.62q7.05.31,7.56,6.52Q62,53.67,54.38,53.77Zm18.81,8.59q-8.07.31-9.52-6.62l3.52-1q.51,4.77,5.9,4.56,4.75,0,4.76-3.21c.28-1.59-1.52-2.76-5.38-3.52q-8.39-1.65-8.08-6.32.31-5.79,8.08-6,7,.1,8.49,5.9l-3.63,1c-.62-2.63-2.21-3.9-4.76-3.83q-4.35,0-4.45,2.89c-.28,1.39,1.35,2.39,4.87,3q8.79,1.65,8.59,6.93C81.37,60.16,78.58,62.22,73.19,62.36Z"/></svg>