<?xml version="1.0" encoding="UTF-8"?>
<svg width="128px" height="128px" viewBox="0 0 128 128" version="1.1" xmlns="http://www.w3.org/2000/svg" xmlns:xlink="http://www.w3.org/1999/xlink">
    <!-- Generator: Sketch 64 (93537) - https://sketch.com -->
    <title>图标/图标128px/文件-zip</title>
    <desc>Created with Sketch.</desc>
    <g id="图标/图标128px/文件-zip" stroke="none" stroke-width="1" fill="none" fill-rule="evenodd">
        <g id="图标-文件128px-zip" fill="#EF9C00">
            <path d="M0,0 L128,0 L128,128 L0,128 L0,0 Z M36.43,53.44 L36.43,57.44 L51.75,57.44 L35.23,78.32 L35.23,82 L58.79,82 L58.79,78 L41.35,78 L57.83,57.16 L57.83,53.44 L36.43,53.44 Z M61.757,53.44 L61.757,82 L66.437,82 L66.437,53.44 L61.757,53.44 Z M71.204,53.44 L71.204,82 L75.884,82 L75.884,71.04 L82.964,71.04 C89.924,71.04 93.404,68.08 93.404,62.2 C93.404,56.36 89.924,53.44 83.044,53.44 L71.204,53.44 Z M75.884,57.44 L82.684,57.44 C84.272534,57.3098827 85.8600025,57.7032378 87.204,58.56 C88.2607308,59.4598715 88.8129522,60.8180377 88.684,62.2 C88.8156892,63.597452 88.2822755,64.9754376 87.244,65.92 C85.8794945,66.7633229 84.2839358,67.1552145 82.684,67.04 L75.884,67.04 L75.884,57.44 Z" id="形状结合"></path>
        </g>
    </g>
</svg>