<?xml version="1.0" encoding="UTF-8"?>
<svg width="249px" height="36px" viewBox="0 0 249 36" version="1.1" xmlns="http://www.w3.org/2000/svg" xmlns:xlink="http://www.w3.org/1999/xlink">
    <!-- Generator: Sketch 64 (93537) - https://sketch.com -->
    <title>编组 6</title>
    <desc>Created with Sketch.</desc>
    <g id="控件" stroke="none" stroke-width="1" fill="none" fill-rule="evenodd">
        <g id="基础控件/顶部导航分类/蓝" transform="translate(-24.000000, -11.000000)" fill="#FFFFFF">
            <g id="编组-6" transform="translate(24.000000, 11.000000)">
                <text id="省信政务一体化平台" font-family="PingFangSC-Semibold, PingFang SC" font-size="22" font-weight="500" line-spacing="29">
                    <tspan x="52" y="27">省信政务一体化平台</tspan>
                </text>
                <g id="编组-9" fill-rule="nonzero">
                    <path d="M9.2370775,17.0300031 C-6.69843271,24.244697 0.33993464,34.0014317 12.6240163,32.1132685 L13.0354448,27.8740848 C5.87952648,29.409595 -2.46659597,23.7744929 9.2370775,17.0300031 Z" id="路径"></path>
                    <path d="M20.1399346,32.8553093 L22.3440163,15.1051052 C19.978302,10.3736766 13.0795265,16.9785746 13.0795265,16.9785746 C14.018097,16.579104 15.0068233,16.3096761 16.018302,16.1777583 C16.018302,17.3018399 13.7480979,33.6487787 13.7480979,33.6487787 C15.893404,37.6308195 21.4917714,33.5459215 23.0419755,32.3042889 L23.4387102,31.9663297 L23.0419755,32.1353093 C22.1184275,32.5261778 21.1390825,32.7691545 20.1399346,32.8553093 L20.1399346,32.8553093 Z" id="路径"></path>
                    <path d="M27.1856489,13.6797991 C27.1856489,13.6797991 32.6444244,14.524697 33.8566693,16.8389827 C35.4215673,19.7777583 32.0640163,24.604697 23.2550367,26.6544929 L23.0493224,28.3149011 L22.6452408,31.4814317 L23.0493224,31.3859215 C25.5472816,30.7393909 38.8893224,26.9777583 38.7203428,19.6749011 C38.2942204,13.5549011 27.6999346,13.6063297 27.1856489,13.6797991 Z" id="路径"></path>
                    <path d="M19.2436081,12.5777913 C21.0889574,12.5575229 22.5704418,11.0487438 22.5569885,9.20333263 C22.5435351,7.35792146 21.0402107,5.87090212 19.1947626,5.87755102 C17.3493144,5.88424464 15.8567803,7.38209397 15.8566693,9.22755417 C15.8688058,11.0871261 17.3840144,12.5859007 19.2436081,12.5777913 L19.2436081,12.5777913 Z" id="路径"></path>
                    <path d="M42.6142204,0.455309271 C44.1748238,0.390410766 45.6454739,1.18600185 46.4451144,2.52774318 C47.244755,3.8694845 47.244755,5.5415422 46.4451144,6.88328353 C45.6454739,8.22502486 44.1748238,9.02061594 42.6142204,8.95571743 C41.0544549,9.0293449 39.5797274,8.24248516 38.7724138,6.90587227 C37.9651001,5.56925939 37.9549874,3.89777291 38.7460692,2.55148953 C39.537151,1.20520614 41.0022496,0.400560075 42.5627918,0.455309271 L42.6142204,0.455309271 Z M42.540751,1.30755417 C41.6599661,1.32294843 40.8217462,1.68921593 40.2120836,2.3250858 C39.6024209,2.96095567 39.2717359,3.81384005 39.293404,4.69449294 C39.2694829,5.58839358 39.6094872,6.45370701 40.2355332,7.09221854 C40.8615792,7.73073006 41.7200219,8.08772648 42.6142204,8.08143172 C43.4897989,8.07401308 44.3252772,7.71332083 44.9311465,7.08116952 C45.5370158,6.4490182 45.8619262,5.59898529 45.8321795,4.7238807 C45.863879,3.83766197 45.5374353,2.97600192 44.9264807,2.33325552 C44.3155261,1.69050913 43.471519,1.32081258 42.5848326,1.30755417 L42.540751,1.30755417 Z M41.8795265,6.89122764 L40.9170775,6.89122764 L40.9170775,2.6593909 C41.454448,2.57657931 41.9970623,2.53238448 42.540751,2.52714601 C43.0548132,2.46790869 43.5736118,2.58723238 44.0101387,2.86510519 C44.2951253,3.07615596 44.457382,3.41442002 44.4436081,3.76877866 C44.4168806,4.26632488 44.0575289,4.68305205 43.5693224,4.78265621 L43.5693224,4.86347254 C43.980751,4.9883705 44.1864653,5.32632968 44.3040163,5.89204396 C44.3570629,6.25027252 44.4609677,6.59909606 44.6125877,6.92796233 L43.5693224,6.92796233 C43.4000231,6.60377813 43.2858122,6.25369705 43.2313632,5.89204396 C43.1578938,5.45122764 42.900751,5.24551335 42.3570775,5.24551335 L41.8795265,5.24551335 L41.8795265,6.89122764 Z M41.8795265,4.51081948 L42.3423836,4.51081948 C42.8787102,4.51081948 43.3195265,4.33449294 43.3195265,3.89367662 C43.3195265,3.45286029 43.0329959,3.24714601 42.415853,3.24714601 C42.2356138,3.24128381 42.0553672,3.25856773 41.8795265,3.29857458 L41.8795265,4.51081948 Z" id="形状"></path>
                </g>
            </g>
        </g>
    </g>
</svg>