<svg id="树枝" xmlns="http://www.w3.org/2000/svg" width="96.406" height="141.843"><defs><style>.cls-2{fill:#ff5b12}</style></defs><path id="形状_2" data-name="形状 2" d="M809.061 357.736s-4.136 26.374 26.384 35.116c9.381 16.95 13.029 20.759 13.192 24.143s.68 25.313 10.993 35.117c-2.7 4.025-2.889 13.8 2.2 17.559s4.992 1.129 2.2-2.195-5.825-10.612-2.2-13.169c3.915 4.411 10.856 13.272 19.787 17.559.258 9.307-1.6 20.883 13.192 24.142s-.385-4.478-4.4-6.584-7.783-11.5-6.6-13.169 4.4 0 4.4 0l-2.2-4.389s3.967-9.354 17.589 4.389c3.282-2.625 1.284-5.075-2.2-6.584s-15.886-3.081-21.986-4.39a13.773 13.773 0 01-8.795-6.584 10.5 10.5 0 018.795-2.195c5.268 1.075 9.592-2.091 4.4-2.195s-13.531-.594-15.39 2.195c-3.334-2.221-11.426-10.973-8.795-10.974s5.184-1.41 6.6 0-1.8-4.918-4.4-4.39a9.95 9.95 0 01-4.4 0s-8.087-14.082-4.4-17.558c4.739 3.054 12.842 15.367 17.589 13.169s10.9-13.308 0-15.364c-6.568-1.239-6.816 3.943-10.993 2.195s-10.993-13.169-10.993-13.169 18.305 10.074 17.589-2.195c-.375-6.428-7.192-2.174-8.795 0s-10.192 1.4-17.589-13.169c-2.982-6.582 26.309.665 28.583 4.39s-1.961 17.352 8.794 15.364 3.525-16.072-6.6-19.754-23.971-5.623-28.582-4.389c2.762-2.868 11.357-9.533 17.589-6.585s15.5 5.412 15.391-2.195-11.5-4.959-17.59-2.194-15.849 7.523-19.787 8.779-8.924.272-8.795-2.2 4.4-12.894 8.795-17.558-4.118-11.386-6.6-6.585-1.825 15.611-2.2 17.559-3.371 4.872-4.4 4.389a28.717 28.717 0 01-13.173-24.138c.04-9.671-2.199-2.194-2.199-2.194z" transform="translate(-808.875 -354.969)"/><circle id="椭圆_1" data-name="椭圆 1" class="cls-2" cx="60.657" cy="122.421" r="7.688"/><circle id="椭圆_1_拷贝" data-name="椭圆 1 拷贝" class="cls-2" cx="78.25" cy="104.859" r="9.906"/><circle id="椭圆_1_拷贝_2" data-name="椭圆 1 拷贝 2" cx="82.656" cy="122.406" r="5.5"/><path id="椭圆_1_拷贝_3" data-name="椭圆 1 拷贝 3" d="M872.811 438.981a6.575 6.575 0 11-6.6 6.575 6.586 6.586 0 016.6-6.575z" transform="translate(-808.875 -354.969)"/></svg>