<?xml version="1.0" standalone="no"?><!DOCTYPE svg PUBLIC "-//W3C//DTD SVG 1.1//EN" "http://www.w3.org/Graphics/SVG/1.1/DTD/svg11.dtd"><svg t="1607674794182" class="icon" viewBox="0 0 1024 1024" version="1.1" xmlns="http://www.w3.org/2000/svg" p-id="20045" xmlns:xlink="http://www.w3.org/1999/xlink" width="200" height="200"><defs><style type="text/css"></style></defs><path d="M1011.2 940.8L838.4 768c64-76.8 102.4-179.2 102.4-294.4 0-256-211.2-460.8-467.2-460.8S12.8 224 12.8 473.6c0 256 211.2 467.2 460.8 467.2 108.8 0 211.2-38.4 294.4-102.4l172.8 172.8 70.4-70.4zM108.8 480c0-204.8 166.4-371.2 371.2-371.2 204.8 0 371.2 166.4 371.2 371.2 0 204.8-166.4 371.2-371.2 371.2-204.8-6.4-371.2-172.8-371.2-371.2z" p-id="20046"></path></svg>