<?xml version="1.0" standalone="no"?><!DOCTYPE svg PUBLIC "-//W3C//DTD SVG 1.1//EN" "http://www.w3.org/Graphics/SVG/1.1/DTD/svg11.dtd"><svg t="1624446628005" class="icon" viewBox="0 0 1024 1024" version="1.1" xmlns="http://www.w3.org/2000/svg" p-id="5862" xmlns:xlink="http://www.w3.org/1999/xlink" width="200" height="200"><defs><style type="text/css"></style></defs><path d="M456.192 538.176V896H96V538.176h360.192zM912 816v64h-384v-64h384z m-529.024-205.12h-213.76v212.384h213.76v-212.352zM912 680v64h-384v-64h384z m0-136v64h-384v-64h384zM456.192 96v357.824H96V96h360.192zM912 384v64h-384v-64h384zM382.976 168.736h-213.76v212.352h213.76V168.736zM912 248v64h-384v-64h384z m0-136v64h-384v-64h384z" p-id="5863"></path></svg>