<?xml version="1.0" standalone="no"?><!DOCTYPE svg PUBLIC "-//W3C//DTD SVG 1.1//EN" "http://www.w3.org/Graphics/SVG/1.1/DTD/svg11.dtd"><svg t="1624446630883" class="icon" viewBox="0 0 1024 1024" version="1.1" xmlns="http://www.w3.org/2000/svg" p-id="5990" xmlns:xlink="http://www.w3.org/1999/xlink" width="200" height="200"><defs><style type="text/css"></style></defs><path d="M625.92 115.008a30.816 30.816 0 0 0-17.408 5.28L254.016 352H90.016c-8.832 0-16 7.2-16 16v288c0 8.8 7.168 16 16 16h163.968l354.528 231.68a31.872 31.872 0 0 0 49.504-26.784V147.104c0-18.816-15.424-32.096-32.128-32.096z m-39.904 688l-292.608-191.296-18.016-11.712H146.016v-176h129.376l17.92-11.712 292.672-191.296v582.016z m348-327.008h-128c-8.8 0-16 7.2-16 16v40c0 8.8 7.2 16 16 16h128c8.768 0 16-7.2 16-16v-40c0-8.8-7.232-16-16-16z m-41.92 261.792l-110.304-63.68a15.904 15.904 0 0 0-21.696 5.888l-19.904 34.496a16 16 0 0 0 5.792 21.792L856.32 800a15.904 15.904 0 0 0 21.696-5.888l19.904-34.496a16.064 16.064 0 0 0-5.76-21.824zM760 344a15.904 15.904 0 0 0 21.696 5.888l110.304-63.68a16 16 0 0 0 5.792-21.824l-19.808-34.4a15.904 15.904 0 0 0-21.696-5.888l-110.304 63.68a16 16 0 0 0-5.76 21.824l19.776 34.4z" p-id="5991"></path></svg>